<svg width="19" height="21" viewBox="0 0 19 21" fill="none" xmlns="http://www.w3.org/2000/svg">
<path fill-rule="evenodd" clip-rule="evenodd" d="M10.5001 13.0898V3.50406L13.0859 6.08984C13.4764 6.48037 14.1096 6.48037 14.5001 6.08984C14.8906 5.69932 14.8906 5.06615 14.5001 4.67563L10.2072 0.382737C9.81666 -0.00778766 9.18349 -0.00778698 8.79297 0.382737L4.50008 4.67563C4.10955 5.06615 4.10955 5.69932 4.50008 6.08984C4.8906 6.48037 5.52376 6.48037 5.91429 6.08984L8.50008 3.50406V13.0898C8.50008 13.6421 8.94779 14.0898 9.50008 14.0898C10.0524 14.0898 10.5001 13.6421 10.5001 13.0898ZM18.5 10.0897C18.5 9.53741 18.0523 9.08969 17.5 9.08969C16.9477 9.08969 16.5 9.53741 16.5 10.0897V17.0897C16.5 17.642 16.0523 18.0897 15.5 18.0897H3.5C2.94772 18.0897 2.5 17.642 2.5 17.0897V10.0897C2.5 9.53741 2.05228 9.08969 1.5 9.08969C0.947715 9.08969 0.5 9.53741 0.5 10.0897V18.0897C0.5 19.1943 1.39543 20.0897 2.5 20.0897H16.5C17.6046 20.0897 18.5 19.1943 18.5 18.0897V10.0897Z" fill="#0F1222"/>
</svg>
